<?xml version="1.0" standalone="no"?>
<!DOCTYPE svg PUBLIC "-//W3C//DTD SVG 20010904//EN"
 "http://www.w3.org/TR/2001/REC-SVG-20010904/DTD/svg10.dtd">
<svg version="1.0" xmlns="http://www.w3.org/2000/svg"
 width="395.000000pt" height="395.000000pt" viewBox="0 0 395.000000 395.000000"
 preserveAspectRatio="xMidYMid meet">
<metadata>
Created by potrace 1.14, written by Peter Selinger 2001-2017
</metadata>
<g transform="translate(0.000000,395.000000) scale(0.100000,-0.100000)"
fill="#000000" stroke="none">
<path d="M2207 2788 c-9 -7 -81 -191 -161 -408 -229 -628 -452 -1239 -477
-1309 -22 -62 -22 -64 -4 -77 24 -18 129 -19 143 -1 10 12 165 433 522 1415
71 195 126 360 124 367 -10 26 -117 35 -147 13z"/>
<path d="M987 2158 c-348 -175 -420 -215 -429 -237 -12 -31 -3 -111 15 -127
29 -27 837 -426 851 -421 12 5 16 20 16 59 0 105 39 79 -585 378 l-120 57 346
170 c375 184 359 172 359 260 0 49 -8 73 -24 73 -6 -1 -199 -96 -429 -212z"/>
<path d="M2487 2363 c-8 -8 -9 -125 -2 -146 3 -7 159 -87 345 -177 187 -90
340 -166 340 -170 0 -3 -154 -82 -342 -175 l-343 -170 -3 -73 c-2 -56 0 -74
12 -78 16 -6 835 400 854 424 19 25 16 126 -5 144 -15 13 -835 428 -846 428
-2 0 -7 -3 -10 -7z"/>
</g>
</svg>
